<svg id="visual" viewBox="0 0 960 540" width="960" height="540" xmlns="http://www.w3.org/2000/svg" xmlns:xlink="http://www.w3.org/1999/xlink" version="1.1"><rect x="0" y="0" width="960" height="540" fill="#222"></rect><path d="M0 150L22.8 153C45.7 156 91.3 162 137 169.5C182.7 177 228.3 186 274 193.2C319.7 200.3 365.3 205.7 411.2 199.2C457 192.7 503 174.3 548.8 172.2C594.7 170 640.3 184 686 183.2C731.7 182.3 777.3 166.7 823 164.3C868.7 162 914.3 173 937.2 178.5L960 184L960 0L937.2 0C914.3 0 868.7 0 823 0C777.3 0 731.7 0 686 0C640.3 0 594.7 0 548.8 0C503 0 457 0 411.2 0C365.3 0 319.7 0 274 0C228.3 0 182.7 0 137 0C91.3 0 45.7 0 22.8 0L0 0Z" fill="#fa7268"></path><path d="M0 150L22.8 148.7C45.7 147.3 91.3 144.7 137 139.7C182.7 134.7 228.3 127.3 274 132.3C319.7 137.3 365.3 154.7 411.2 153.5C457 152.3 503 132.7 548.8 133.3C594.7 134 640.3 155 686 158.7C731.7 162.3 777.3 148.7 823 138.8C868.7 129 914.3 123 937.2 120L960 117L960 0L937.2 0C914.3 0 868.7 0 823 0C777.3 0 731.7 0 686 0C640.3 0 594.7 0 548.8 0C503 0 457 0 411.2 0C365.3 0 319.7 0 274 0C228.3 0 182.7 0 137 0C91.3 0 45.7 0 22.8 0L0 0Z" fill="#f8685f"></path><path d="M0 108L22.8 112.5C45.7 117 91.3 126 137 132.2C182.7 138.3 228.3 141.7 274 135.7C319.7 129.7 365.3 114.3 411.2 104.8C457 95.3 503 91.7 548.8 89.7C594.7 87.7 640.3 87.3 686 86.7C731.7 86 777.3 85 823 85.3C868.7 85.7 914.3 87.3 937.2 88.2L960 89L960 0L937.2 0C914.3 0 868.7 0 823 0C777.3 0 731.7 0 686 0C640.3 0 594.7 0 548.8 0C503 0 457 0 411.2 0C365.3 0 319.7 0 274 0C228.3 0 182.7 0 137 0C91.3 0 45.7 0 22.8 0L0 0Z" fill="#f55d56"></path><path d="M0 79L22.8 77.2C45.7 75.3 91.3 71.7 137 69.2C182.7 66.7 228.3 65.3 274 64.2C319.7 63 365.3 62 411.2 62.5C457 63 503 65 548.8 63.3C594.7 61.7 640.3 56.3 686 56.5C731.7 56.7 777.3 62.3 823 63.5C868.7 64.7 914.3 61.3 937.2 59.7L960 58L960 0L937.2 0C914.3 0 868.7 0 823 0C777.3 0 731.7 0 686 0C640.3 0 594.7 0 548.8 0C503 0 457 0 411.2 0C365.3 0 319.7 0 274 0C228.3 0 182.7 0 137 0C91.3 0 45.7 0 22.8 0L0 0Z" fill="#f2514d"></path><path d="M0 31L22.8 32C45.7 33 91.3 35 137 35.3C182.7 35.7 228.3 34.3 274 35.8C319.7 37.3 365.3 41.7 411.2 44.3C457 47 503 48 548.8 50.2C594.7 52.3 640.3 55.7 686 56.7C731.7 57.7 777.3 56.3 823 54.2C868.7 52 914.3 49 937.2 47.5L960 46L960 0L937.2 0C914.3 0 868.7 0 823 0C777.3 0 731.7 0 686 0C640.3 0 594.7 0 548.8 0C503 0 457 0 411.2 0C365.3 0 319.7 0 274 0C228.3 0 182.7 0 137 0C91.3 0 45.7 0 22.8 0L0 0Z" fill="#ef4444"></path></svg>