<svg id="visual" viewBox="0 0 900 250" width="900" height="250" xmlns="http://www.w3.org/2000/svg" xmlns:xlink="http://www.w3.org/1999/xlink" version="1.1"><rect x="0" y="0" width="900" height="250" fill="#222222"></rect><path d="M0 96L21.5 97.3C43 98.7 86 101.3 128.8 99.7C171.7 98 214.3 92 257.2 96C300 100 343 114 385.8 118C428.7 122 471.3 116 514.2 114.5C557 113 600 116 642.8 112.3C685.7 108.7 728.3 98.3 771.2 94.7C814 91 857 94 878.5 95.5L900 97L900 251L878.5 251C857 251 814 251 771.2 251C728.3 251 685.7 251 642.8 251C600 251 557 251 514.2 251C471.3 251 428.7 251 385.8 251C343 251 300 251 257.2 251C214.3 251 171.7 251 128.8 251C86 251 43 251 21.5 251L0 251Z" fill="#ef7cff"></path><path d="M0 125L21.5 129.2C43 133.3 86 141.7 128.8 145.2C171.7 148.7 214.3 147.3 257.2 142.3C300 137.3 343 128.7 385.8 129.3C428.7 130 471.3 140 514.2 143.2C557 146.3 600 142.7 642.8 140.5C685.7 138.3 728.3 137.7 771.2 140.5C814 143.3 857 149.7 878.5 152.8L900 156L900 251L878.5 251C857 251 814 251 771.2 251C728.3 251 685.7 251 642.8 251C600 251 557 251 514.2 251C471.3 251 428.7 251 385.8 251C343 251 300 251 257.2 251C214.3 251 171.7 251 128.8 251C86 251 43 251 21.5 251L0 251Z" fill="#f265dc"></path><path d="M0 170L21.5 166.3C43 162.7 86 155.3 128.8 153.7C171.7 152 214.3 156 257.2 157.3C300 158.7 343 157.3 385.8 157.8C428.7 158.3 471.3 160.7 514.2 162.2C557 163.7 600 164.3 642.8 161.3C685.7 158.3 728.3 151.7 771.2 155.7C814 159.7 857 174.3 878.5 181.7L900 189L900 251L878.5 251C857 251 814 251 771.2 251C728.3 251 685.7 251 642.8 251C600 251 557 251 514.2 251C471.3 251 428.7 251 385.8 251C343 251 300 251 257.2 251C214.3 251 171.7 251 128.8 251C86 251 43 251 21.5 251L0 251Z" fill="#ef4fb9"></path><path d="M0 211L21.5 209.8C43 208.7 86 206.3 128.8 204.3C171.7 202.3 214.3 200.7 257.2 196.3C300 192 343 185 385.8 182.3C428.7 179.7 471.3 181.3 514.2 186.8C557 192.3 600 201.7 642.8 204.2C685.7 206.7 728.3 202.3 771.2 198.8C814 195.3 857 192.7 878.5 191.3L900 190L900 251L878.5 251C857 251 814 251 771.2 251C728.3 251 685.7 251 642.8 251C600 251 557 251 514.2 251C471.3 251 428.7 251 385.8 251C343 251 300 251 257.2 251C214.3 251 171.7 251 128.8 251C86 251 43 251 21.5 251L0 251Z" fill="#e73a97"></path><path d="M0 214L21.5 215.3C43 216.7 86 219.3 128.8 219.5C171.7 219.7 214.3 217.3 257.2 213.8C300 210.3 343 205.7 385.8 204.3C428.7 203 471.3 205 514.2 205.5C557 206 600 205 642.8 209C685.7 213 728.3 222 771.2 225.5C814 229 857 227 878.5 226L900 225L900 251L878.5 251C857 251 814 251 771.2 251C728.3 251 685.7 251 642.8 251C600 251 557 251 514.2 251C471.3 251 428.7 251 385.8 251C343 251 300 251 257.2 251C214.3 251 171.7 251 128.8 251C86 251 43 251 21.5 251L0 251Z" fill="#db2777"></path></svg>